<svg xmlns="http://www.w3.org/2000/svg" width="369.909" height="781.782"><defs><linearGradient id="a" x1="0%" y1="100%" x2="0%" y2="0%"><stop offset="0%" stop-color="#672625"/><stop offset="100%" stop-color="#ef3337"/></linearGradient></defs><path fill="#FC3237" d="M184.954 0c-22.703 0-41.108 18.405-41.108 41.109v43.502c0 15.183 8.236 28.432 20.479 35.552v83.643C76.213 213.605 6.538 285.385.031 374.435h111.276c6.436-34.813 37-61.27 73.647-61.27s67.21 26.457 73.646 61.27h111.278c-6.509-89.05-76.184-160.83-164.293-170.629v-83.643c12.242-7.12 20.479-20.369 20.479-35.552V41.109C226.064 18.405 207.658 0 184.954 0z"/><path fill="url(#a)" d="M258.893 400.087c-5.765 35.618-36.719 62.906-73.939 62.906s-68.174-27.288-73.938-62.906H0c8.552 111.353 130.818 260.644 164.325 299.64v61.424c0 11.394 9.236 20.631 20.629 20.631 11.394 0 20.631-9.237 20.631-20.631v-61.424c33.507-38.996 155.771-188.287 164.324-299.64H258.893z"/></svg>