<svg xmlns="http://www.w3.org/2000/svg" viewBox="0 0 287 232"><path d="M136.362 87.74C136.362 37.96 107.029 0 65.01 0 27.749 0 .002 28.68.002 66.65c0 34.58 22.2 63.27 51.531 69.17 0 12.66.188 46.52-28.353 72.67L43.605 232l3.171-2.53c16.649-13.5 89.586-62.43 89.586-141.73zm150.631 0c0-49.78-30.126-87.74-72.144-87.74-37.261 0-64.216 28.68-64.216 66.65 0 34.58 22.2 63.27 51.531 69.17-.793 12.66-.6 49.41-28.353 75.56L193.443 232c7.135-4.22 11.891-6.75 34.091-27 11.1-10.12 20.612-20.25 27.747-30.37 15.856-20.25 31.712-53.99 31.712-86.89z" fill="#1e1e20" fill-rule="evenodd"/></svg>